<svg width="108" height="98" viewBox="0 0 108 98" fill="none" xmlns="http://www.w3.org/2000/svg">
<g opacity="0.4">
<path d="M72.1407 97.6453C73.6594 97.2768 80.5149 93.6129 83.4259 91.6184C87.2016 89.0385 89.3321 87.2824 92.5173 84.0088C102.832 73.4725 106.734 62.3941 107.684 40.9746C107.831 37.8961 107.895 29.2893 107.852 19.8369C107.789 5.02969 107.768 3.8373 107.409 3.12188C106.903 2.10293 105.912 1.0623 104.857 0.476953L103.992 3.38587e-07L85.7462 1.93371e-06C70.8329 3.23747e-06 67.3524 0.0650426 66.6774 0.303519C65.6438 0.672074 64.336 1.88614 63.7454 3.01348L63.2813 3.90235L63.218 22.4168C63.1548 42.774 63.1337 42.3188 64.4415 43.9447C64.779 44.3783 65.5594 44.9854 66.1712 45.2889L67.268 45.8525L75.9798 45.8525L84.6915 45.8525L84.6915 47.4352C84.6915 50.9039 83.8688 55.7818 82.6876 59.424C80.0087 67.6623 75.3469 72.8654 66.5508 77.3965C64.8423 78.2854 63.1759 79.2826 62.7962 79.6945C61.8259 80.7135 61.4251 81.9709 61.5305 83.6186C61.6149 84.8326 61.9102 85.6131 64.1251 90.3609C66.7196 95.9326 67.2048 96.6914 68.7446 97.3418C69.6938 97.7537 71.1704 97.8838 72.1407 97.6453Z" fill="white"/>
<path d="M12.1289 96.9516C26.325 90.5777 37.1461 79.7379 41.9344 67.0986C43.3055 63.4998 44.5289 58.0149 45.225 52.3565C46.1109 45.2672 46.1953 42.6006 46.1953 22.8721C46.1953 4.68281 46.1742 3.85898 45.7945 3.07852C45.2883 2.01621 44.3813 1.08398 43.2633 0.476953L42.3984 3.31933e-07L24.0469 1.93628e-06C5.84297 3.52771e-06 5.69532 3.54062e-06 4.7461 0.455277C3.60703 0.997269 2.76328 1.84278 2.13047 3.03516C1.6875 3.90235 1.6875 3.94571 1.62422 22.4168C1.56094 42.774 1.53985 42.3188 2.84766 43.9447C3.18516 44.3783 3.96563 44.9854 4.57735 45.2889L5.67423 45.8525L14.4914 45.8525C23.0766 45.8525 23.3086 45.8525 23.3086 46.2645C23.3086 47.8904 22.7602 52.6817 22.3383 54.8496C21.6844 58.1883 20.9883 60.3346 19.6172 63.3047C16.7063 69.5918 12.2766 73.8193 4.7461 77.5483C0.864852 79.4561 0.0211023 80.475 1.10926e-05 83.25C1.12234e-05 84.7459 0.042198 84.8326 2.42579 89.9274C3.7547 92.7457 5.12579 95.434 5.46329 95.8676C6.96095 97.732 9.4711 98.144 12.1289 96.9516Z" fill="white"/>
</g>
</svg>
