<svg width="108" height="98" viewBox="0 0 108 98" fill="none" xmlns="http://www.w3.org/2000/svg">
<g opacity="0.4">
<path d="M35.7245 0.118843C34.2058 0.487396 27.3503 4.15127 24.4394 6.1458C20.6636 8.72568 18.5331 10.4817 15.348 13.7554C5.03314 24.2917 1.1308 35.37 0.18158 56.7896C0.033924 59.8681 -0.0293572 68.4749 0.0128303 77.9272C0.0761115 92.7345 0.0972053 93.9269 0.455799 94.6423C0.962049 95.6612 1.95346 96.7019 3.00814 97.2872L3.87299 97.7642H22.1191C37.0324 97.7642 40.5128 97.6991 41.1878 97.4606C42.2214 97.0921 43.5292 95.878 44.1199 94.7507L44.5839 93.8618L44.6472 75.3474C44.7105 54.9901 44.7316 55.4454 43.4238 53.8194C43.0863 53.3858 42.3058 52.7788 41.6941 52.4753L40.5972 51.9116H31.8855L23.1738 51.9116V50.329C23.1738 46.8603 23.9964 41.9823 25.1777 38.3401C27.8566 30.1019 32.5183 24.8987 41.3144 20.3677C43.023 19.4788 44.6894 18.4815 45.0691 18.0696C46.0394 17.0507 46.4402 15.7933 46.3347 14.1456C46.2503 12.9315 45.955 12.1511 43.7402 7.40322C41.1456 1.83154 40.6605 1.07275 39.1206 0.422363C38.1714 0.0104446 36.6949 -0.119629 35.7245 0.118843Z" fill="white"/>
<path d="M95.7363 0.812584C81.5402 7.18642 70.7191 18.0263 65.9309 30.6655C64.5598 34.2643 63.3363 39.7493 62.6402 45.4077C61.7543 52.497 61.6699 55.1636 61.6699 74.8921C61.6699 93.0813 61.691 93.9052 62.0707 94.6856C62.577 95.7479 63.484 96.6802 64.602 97.2872L65.4668 97.7642H83.8184C102.022 97.7642 102.17 97.7642 103.119 97.3089C104.258 96.7669 105.102 95.9214 105.735 94.729C106.178 93.8618 106.178 93.8185 106.241 75.3474C106.304 54.9901 106.325 55.4454 105.018 53.8194C104.68 53.3858 103.9 52.7788 103.288 52.4753L102.191 51.9116H93.3738C84.7887 51.9116 84.5566 51.9116 84.5566 51.4997C84.5566 49.8737 85.1051 45.0825 85.527 42.9145C86.1809 39.5759 86.877 37.4296 88.248 34.4595C91.159 28.1724 95.5887 23.9448 103.119 20.2159C107 18.3081 107.844 17.2892 107.865 14.5142C107.865 13.0182 107.823 12.9315 105.439 7.83681C104.111 5.01845 102.739 2.33016 102.402 1.89657C100.904 0.0321198 98.3941 -0.379799 95.7363 0.812584Z" fill="white"/>
</g>
</svg>
