<svg width="186" height="40" viewBox="0 0 186 40" fill="none" xmlns="http://www.w3.org/2000/svg">
<g clip-path="url(#clip0_2996_25)">
<path d="M58.9399 24.6809V3.8298H67.6896C69.2226 3.8298 70.6261 4.08795 71.9002 4.60427C73.1743 5.10072 74.2693 5.81561 75.1851 6.74895C76.1208 7.68229 76.8375 8.78444 77.3352 10.0553C77.8328 11.3262 78.0817 12.7262 78.0817 14.2553C78.0817 15.7844 77.8328 17.1943 77.3352 18.4851C76.8375 19.756 76.1208 20.8581 75.1851 21.7915C74.2693 22.7049 73.1743 23.4198 71.9002 23.9362C70.6261 24.4326 69.2226 24.6809 67.6896 24.6809H58.9399ZM64.0165 21.2255L63.3297 20.2128H67.5403C68.3765 20.2128 69.123 20.0738 69.78 19.7958C70.437 19.4979 70.9944 19.0908 71.4523 18.5745C71.9301 18.0581 72.2984 17.4326 72.5572 16.6979C72.816 15.9632 72.9454 15.1489 72.9454 14.2553C72.9454 13.3617 72.816 12.5475 72.5572 11.8128C72.2984 11.0781 71.9301 10.4525 71.4523 9.93618C70.9944 9.41984 70.437 9.02274 69.78 8.74469C69.123 8.44682 68.3765 8.29789 67.5403 8.29789H63.2401L64.0165 7.34469V21.2255ZM81.4998 24.6809V8.86384H86.0388L86.2478 14.017L85.3519 13.0341C85.5908 12.1802 85.9791 11.4156 86.5166 10.7404C87.0737 10.0653 87.7213 9.52912 88.4576 9.13193C89.194 8.73474 89.9806 8.53618 90.8168 8.53618C91.1751 8.53618 91.5036 8.56597 91.8022 8.62555C92.1205 8.68512 92.4097 8.75465 92.6682 8.83406L91.3543 14.1064C91.135 13.9674 90.8364 13.8581 90.4584 13.7787C90.1001 13.6794 89.7221 13.6298 89.3236 13.6298C88.8859 13.6298 88.4773 13.7092 88.0993 13.8681C87.7213 14.0071 87.4022 14.2156 87.1437 14.4936C86.8852 14.7717 86.6761 15.0993 86.5166 15.4766C86.3775 15.8539 86.3075 16.2809 86.3075 16.7575V24.6809H81.4998ZM95.3584 24.6809V8.86384H100.136V24.6809H95.3584ZM97.7474 5.73618C96.8515 5.73618 96.1451 5.52767 95.6272 5.11065C95.1297 4.67378 94.8806 4.05817 94.8806 3.26384C94.8806 2.54895 95.1391 1.96313 95.657 1.5064C96.1749 1.04966 96.8711 0.821289 97.7474 0.821289C98.6433 0.821289 99.3403 1.03972 99.8378 1.47661C100.335 1.89363 100.584 2.48938 100.584 3.26384C100.584 3.99859 100.326 4.59434 99.8079 5.05108C99.3105 5.50782 98.6236 5.73618 97.7474 5.73618ZM109.494 24.6809L102.864 8.86384H108.15L112.092 20.6894L110.927 20.8085L114.988 8.86384H120.214L113.256 24.6809H109.494ZM129.227 24.9787C127.694 24.9787 126.321 24.6213 125.106 23.9064C123.891 23.1915 122.926 22.2185 122.209 20.9872C121.513 19.7362 121.164 18.3262 121.164 16.7575C121.164 15.1887 121.513 13.7887 122.209 12.5575C122.926 11.3064 123.891 10.3234 125.106 9.60852C126.321 8.89363 127.694 8.53618 129.227 8.53618C130.64 8.53618 131.935 8.78444 133.109 9.28086C134.303 9.77729 135.249 10.4724 135.946 11.366L133.348 14.4638C133.069 14.1461 132.741 13.8483 132.362 13.5702C131.984 13.2922 131.566 13.0738 131.108 12.9149C130.651 12.756 130.173 12.6766 129.675 12.6766C128.919 12.6766 128.251 12.8553 127.674 13.2128C127.097 13.5504 126.649 14.027 126.33 14.6426C126.012 15.2581 125.852 15.9632 125.852 16.7575C125.852 17.5121 126.012 18.1972 126.33 18.8128C126.669 19.4284 127.127 19.9149 127.704 20.2724C128.281 20.6298 128.938 20.8085 129.675 20.8085C130.192 20.8085 130.67 20.7489 131.108 20.6298C131.546 20.4908 131.944 20.2922 132.302 20.0341C132.681 19.7759 133.029 19.4581 133.348 19.0809L135.916 22.2085C135.239 23.0624 134.294 23.7376 133.079 24.2341C131.884 24.7305 130.6 24.9787 129.227 24.9787ZM146.008 24.9787C144.355 24.9787 142.881 24.6213 141.588 23.9064C140.313 23.1915 139.298 22.2185 138.542 20.9872C137.805 19.756 137.437 18.3461 137.437 16.7575C137.437 15.1688 137.805 13.7589 138.542 12.5277C139.298 11.2964 140.313 10.3234 141.588 9.60852C142.881 8.89363 144.355 8.53618 146.008 8.53618C147.659 8.53618 149.123 8.89363 150.397 9.60852C151.691 10.3234 152.706 11.2964 153.443 12.5277C154.18 13.7589 154.548 15.1688 154.548 16.7575C154.548 18.3461 154.18 19.756 153.443 20.9872C152.706 22.2185 151.691 23.1915 150.397 23.9064C149.123 24.6213 147.659 24.9787 146.008 24.9787ZM146.008 20.8681C146.724 20.8681 147.361 20.6894 147.919 20.3319C148.476 19.9745 148.914 19.4879 149.233 18.8724C149.551 18.2568 149.7 17.5518 149.681 16.7575C149.7 15.9632 149.551 15.2581 149.233 14.6426C148.914 14.0071 148.476 13.5107 147.919 13.1532C147.361 12.7958 146.724 12.617 146.008 12.617C145.291 12.617 144.643 12.7958 144.067 13.1532C143.509 13.5107 143.071 14.0071 142.753 14.6426C142.433 15.2581 142.284 15.9632 142.305 16.7575C142.284 17.5518 142.433 18.2568 142.753 18.8724C143.071 19.4879 143.509 19.9745 144.067 20.3319C144.643 20.6894 145.291 20.8681 146.008 20.8681Z" fill="white"/>
<path d="M62.4687 39.2234C62.2309 39.2234 62.0495 39.161 61.9244 39.0362C61.7992 38.9113 61.7147 38.7522 61.671 38.5587C61.6272 38.3653 61.599 38.1655 61.5865 37.9596C61.5865 37.841 61.5927 37.7006 61.6053 37.5383C61.6178 37.376 61.6334 37.22 61.6522 37.0702C61.6772 36.9142 61.6959 36.7987 61.7085 36.7238H59.5593C59.1588 37.142 58.7771 37.5508 58.4142 37.9502C58.0576 38.3434 57.7072 38.7428 57.3631 39.1485H56.4246C56.5873 38.9987 56.8 38.799 57.0628 38.5494C57.3318 38.2935 57.6353 38.0032 57.9731 37.6787C58.311 37.3542 58.6614 37.0109 59.0243 36.649C59.3935 36.2807 59.7626 35.9125 60.1318 35.5443C60.5009 35.1698 60.8482 34.8109 61.1735 34.4677C61.5052 34.1181 61.7992 33.803 62.0558 33.5221C62.1809 33.3849 62.2966 33.2475 62.403 33.1102C62.5156 32.9667 62.6408 32.8481 62.7784 32.7545C62.916 32.6609 63.085 32.6141 63.2852 32.6141H63.961C63.8546 32.7139 63.7483 32.8824 63.6419 33.1196C63.5355 33.3568 63.4385 33.6126 63.3509 33.8872C63.2696 34.1619 63.2008 34.4115 63.1444 34.6362C63.0631 34.9732 62.9787 35.3383 62.891 35.7315C62.8097 36.1247 62.744 36.5147 62.694 36.9017C62.6439 37.2887 62.6283 37.6475 62.647 37.9783C62.6533 38.0969 62.6752 38.2217 62.7127 38.3528C62.7565 38.4776 62.816 38.5868 62.891 38.6804C62.9724 38.7678 63.0725 38.8115 63.1914 38.8115C63.2978 38.8115 63.4135 38.7709 63.5386 38.6898L63.5949 38.7741C63.5136 38.8989 63.3572 39.0049 63.1257 39.0924C62.9004 39.1798 62.6814 39.2234 62.4687 39.2234ZM58.7146 34.477C58.6145 34.3709 58.5394 34.2617 58.4893 34.1494C58.4456 34.037 58.4236 33.9309 58.4236 33.8311C58.4236 33.7062 58.4486 33.5877 58.4987 33.4753C58.555 33.3568 58.6207 33.2569 58.6958 33.1758C58.846 33.0072 59.0337 32.8824 59.2589 32.8013C59.4842 32.7202 59.722 32.6702 59.9722 32.6515C60.2288 32.6266 60.4728 32.6141 60.7043 32.6141H62.8066C62.6752 32.7451 62.4749 32.8481 62.2059 32.923C61.9431 32.9917 61.6553 33.0447 61.3425 33.0821C61.0296 33.1134 60.7262 33.1445 60.4321 33.1758C60.1443 33.2007 59.9065 33.2351 59.7188 33.2787C59.3872 33.3536 59.1338 33.4972 58.9586 33.7094C58.7897 33.9215 58.7083 34.1775 58.7146 34.477ZM59.9722 36.2558H61.7742C61.8493 35.8438 61.9369 35.4319 62.037 35.02C62.1434 34.6081 62.2372 34.2461 62.3185 33.9341C61.9369 34.296 61.5458 34.6736 61.1454 35.0668C60.7512 35.4538 60.3602 35.8501 59.9722 36.2558ZM68.6818 39.2234C68.4503 39.2234 68.2908 39.1579 68.2031 39.0268C68.1218 38.8895 68.0811 38.7241 68.0811 38.5307C68.0811 38.4308 68.0874 38.3278 68.0999 38.2217C68.1187 38.1094 68.1406 37.997 68.1656 37.8847C68.1844 37.7849 68.2219 37.6507 68.2782 37.4821C68.3408 37.3074 68.4096 37.1202 68.4847 36.9204C68.566 36.7207 68.6474 36.5272 68.7287 36.34C68.81 36.1466 68.882 35.9811 68.9446 35.8438C68.8445 35.9998 68.7162 36.1902 68.5598 36.4149C68.4096 36.6334 68.2469 36.8611 68.0717 37.0983C67.9028 37.3355 67.737 37.5602 67.5743 37.7724C67.4179 37.9783 67.2802 38.1468 67.1614 38.2779C66.8736 38.59 66.5795 38.824 66.2791 38.98C65.9788 39.136 65.7035 39.2141 65.4532 39.2141C65.1154 39.2141 64.8526 39.136 64.6649 38.98C64.4772 38.824 64.3833 38.5556 64.3833 38.1749C64.3833 37.9939 64.4052 37.7849 64.449 37.5477C64.4928 37.3043 64.5648 37.0296 64.6649 36.7238C64.7837 36.3556 64.9308 35.9687 65.106 35.563C65.2811 35.1511 65.4658 34.7485 65.6597 34.3553C65.86 33.9559 66.0539 33.5877 66.2416 33.2507C66.2541 33.2257 66.2791 33.1789 66.3167 33.1102C66.3605 33.0415 66.3949 32.9917 66.4199 32.9604C66.1759 32.9667 65.9131 32.9979 65.6316 33.0541C65.3562 33.104 65.0904 33.1758 64.8338 33.2694C64.5836 33.363 64.3677 33.4722 64.1862 33.597C64.0111 33.7219 63.8984 33.8592 63.8483 34.0089C63.8421 34.0277 63.8296 34.037 63.8108 34.037C63.7545 34.037 63.7263 33.9934 63.7263 33.906C63.7263 33.8872 63.7326 33.8592 63.7451 33.8217C63.8076 33.6594 63.8797 33.5159 63.961 33.3911C64.0423 33.2662 64.1267 33.1602 64.2144 33.0728C64.4209 32.8606 64.6523 32.7326 64.9089 32.689C65.1654 32.639 65.4376 32.6141 65.7254 32.6141H67.8559C67.7245 32.7139 67.5805 32.8762 67.4242 33.1009C67.2678 33.3255 67.1051 33.5815 66.9361 33.8685C66.7734 34.1556 66.617 34.4521 66.4669 34.7579C66.3167 35.0575 66.1821 35.3383 66.0633 35.6004C65.9507 35.8564 65.86 36.0654 65.7911 36.2277C65.7536 36.3213 65.691 36.4711 65.6034 36.677C65.5221 36.883 65.447 37.1108 65.3782 37.3604C65.3093 37.6038 65.2749 37.8285 65.2749 38.0345C65.2749 38.2092 65.3125 38.3528 65.3875 38.4651C65.4626 38.5775 65.5909 38.6305 65.7723 38.6243C65.9663 38.6181 66.1885 38.5244 66.4387 38.3434C66.6889 38.1624 66.9517 37.9221 67.2271 37.6226C67.5024 37.323 67.7776 36.9953 68.053 36.6396C68.3283 36.2776 68.5879 35.9156 68.832 35.5536C69.0822 35.1854 69.3044 34.8453 69.4983 34.5332C69.6922 34.2149 69.8424 33.9528 69.9488 33.7468C70.1678 33.3474 70.3649 33.0603 70.5401 32.8855C70.7216 32.7045 70.9217 32.6141 71.1407 32.6141H71.7226C71.5912 32.7139 71.4473 32.8824 71.2909 33.1196C71.1345 33.3568 70.9812 33.6126 70.831 33.8872C70.6809 34.1619 70.5495 34.4115 70.4368 34.6362C70.2741 34.9732 70.1084 35.3383 69.9394 35.7315C69.7705 36.1247 69.6203 36.5147 69.4889 36.9017C69.3575 37.2887 69.2605 37.6475 69.198 37.9783C69.1792 38.0781 69.1698 38.1843 69.1698 38.2966C69.1698 38.4339 69.1918 38.5556 69.2355 38.6617C69.2856 38.7615 69.3731 38.8115 69.4983 38.8115C69.6047 38.8115 69.7298 38.7709 69.8737 38.6898H69.8831C69.8956 38.6898 69.905 38.7023 69.9113 38.7272C69.9175 38.746 69.9144 38.7615 69.9019 38.7741C69.783 38.8989 69.6047 39.0049 69.3669 39.0924C69.1291 39.1798 68.9008 39.2234 68.6818 39.2234ZM73.5517 39.3545C73.3452 39.3545 73.2076 39.2827 73.1387 39.1392C73.0699 38.9894 73.0355 38.824 73.0355 38.643C73.0355 38.5181 73.0448 38.3964 73.0636 38.2779C73.0824 38.153 73.1012 38.0501 73.1199 37.9689C73.17 37.7318 73.2513 37.4509 73.364 37.1264C73.4766 36.7956 73.6048 36.4492 73.7487 36.0872C73.8989 35.719 74.0553 35.357 74.218 35.0013C74.3807 34.6393 74.5371 34.3023 74.6873 33.9902C74.8437 33.6719 74.9814 33.4004 75.1002 33.1758C74.9563 33.182 74.7905 33.182 74.6028 33.1758C74.4151 33.1632 74.2212 33.157 74.0209 33.157C73.6768 33.157 73.3358 33.1851 72.9979 33.2413C72.6663 33.2912 72.3941 33.4129 72.1814 33.6064C72.0813 33.7 72.0093 33.7998 71.9655 33.906C71.9218 34.0121 71.8998 34.1181 71.8998 34.2243C71.8998 34.3428 71.9186 34.4583 71.9562 34.5707C71.9624 34.5832 71.9655 34.5987 71.9655 34.6175C71.9655 34.6798 71.9342 34.7111 71.8717 34.7111C71.8341 34.7111 71.806 34.6955 71.7872 34.6643C71.7247 34.5644 71.6778 34.4645 71.6464 34.3647C71.6214 34.2586 71.6089 34.1556 71.6089 34.0558C71.6089 33.881 71.6402 33.7156 71.7027 33.5596C71.7653 33.4036 71.8404 33.2756 71.928 33.1758C72.147 32.9198 72.4442 32.7513 72.8196 32.6702C73.195 32.5828 73.586 32.5392 73.9928 32.5392C74.3056 32.5392 74.609 32.5517 74.9031 32.5766C75.2035 32.6015 75.4694 32.6203 75.7009 32.6328C75.9199 32.6453 76.1921 32.6671 76.5174 32.6983C76.8428 32.7232 77.1588 32.7358 77.4653 32.7358C77.7407 32.7358 77.9878 32.717 78.2068 32.6796C78.4258 32.6421 78.5853 32.5735 78.6854 32.4736C78.7042 32.5111 78.7136 32.5547 78.7136 32.6047C78.7136 32.7358 78.6385 32.8637 78.4883 32.9885C78.3382 33.1134 78.1349 33.1976 77.8783 33.2413C77.797 33.2538 77.7031 33.2632 77.5967 33.2694C77.4967 33.2756 77.3903 33.2787 77.2776 33.2787C77.0899 33.2787 76.9022 33.2756 76.7145 33.2694C76.5268 33.2569 76.361 33.2444 76.2171 33.2319C76.0732 33.2194 75.9762 33.2164 75.9261 33.2226C75.8886 33.2787 75.8291 33.3817 75.7478 33.5315C75.6727 33.6813 75.5914 33.8436 75.5038 34.0183C75.4162 34.193 75.338 34.3522 75.2692 34.4958C75.1503 34.7454 75.0252 35.0262 74.8938 35.3383C74.7624 35.6504 74.6372 35.9655 74.5183 36.2838C74.3995 36.6021 74.2963 36.9049 74.2086 37.1919C74.1273 37.479 74.0741 37.7255 74.0491 37.9315C74.0428 37.9502 74.0397 37.9721 74.0397 37.997C74.0397 38.0158 74.0397 38.0345 74.0397 38.0532C74.0397 38.1718 74.0616 38.2747 74.1054 38.3621C74.1555 38.4432 74.2306 38.4838 74.3306 38.4838C74.4183 38.4838 74.5246 38.437 74.6497 38.3434C74.7749 38.2498 74.9188 38.0938 75.0815 37.8753C75.1128 37.8379 75.1409 37.8192 75.1659 37.8192C75.2035 37.8192 75.2222 37.8504 75.2222 37.9128C75.2222 37.9564 75.2066 38.0158 75.1753 38.0907C75.1503 38.1655 75.1034 38.2529 75.0345 38.3528C74.9782 38.4339 74.8875 38.5432 74.7624 38.6804C74.6372 38.8115 74.5152 38.9238 74.3963 39.0175C74.2899 39.1049 74.1586 39.1828 74.0022 39.2515C73.8458 39.3202 73.6956 39.3545 73.5517 39.3545ZM79.4976 39.4481C79.0346 39.4481 78.6278 39.3794 78.2775 39.2421C77.9271 39.1111 77.6549 38.8958 77.461 38.5962C77.267 38.2966 77.17 37.8972 77.17 37.3979C77.17 36.8986 77.2513 36.4118 77.4141 35.9375C77.583 35.4569 77.8145 35.0107 78.1086 34.5987C78.4026 34.1868 78.7468 33.8249 79.141 33.5128C79.5414 33.2007 79.9731 32.9573 80.4361 32.7826C80.8991 32.6078 81.3809 32.5204 81.8815 32.5204C82.4383 32.5204 82.8919 32.6141 83.2423 32.8013C83.5927 32.9885 83.8492 33.2444 84.0119 33.569C84.1809 33.8872 84.2653 34.2461 84.2653 34.6455C84.2653 35.176 84.137 35.7315 83.8805 36.3119C83.6178 36.9049 83.2736 37.4385 82.8482 37.9128C82.4227 38.3871 81.9252 38.7615 81.3559 39.0362C80.7928 39.3108 80.1733 39.4481 79.4976 39.4481ZM80.3517 38.9519C80.7208 38.8521 81.0837 38.6679 81.4404 38.3996C81.797 38.1312 82.1192 37.8098 82.4071 37.4353C82.6948 37.0609 82.9232 36.6677 83.0922 36.2558C83.355 35.6254 83.4864 35.0325 83.4864 34.477C83.4864 34.3896 83.48 34.3054 83.4676 34.2243C83.4613 34.1432 83.4519 34.0651 83.4394 33.9902C83.3706 33.6095 83.211 33.3411 82.9608 33.1851C82.7104 33.0291 82.4289 32.9511 82.1161 32.9511C81.7907 32.9511 81.4591 33.0166 81.1213 33.1477C80.7834 33.2725 80.4924 33.4285 80.2484 33.6158C79.9481 33.853 79.6696 34.1244 79.4131 34.4302C79.1566 34.736 78.9407 35.0606 78.7655 35.4038C78.6154 35.7034 78.4934 36.0311 78.3995 36.3868C78.3119 36.7364 78.2681 37.0764 78.2681 37.4072C78.2681 37.7068 78.3119 37.9815 78.3995 38.2311C78.4871 38.4807 78.631 38.6836 78.8312 38.8396C79.0314 38.9894 79.2974 39.0643 79.629 39.0643C79.8417 39.0643 80.0826 39.0268 80.3517 38.9519ZM90.7996 39.2234C90.5556 39.2234 90.39 39.161 90.3022 39.0362C90.2151 38.9051 90.1708 38.7428 90.1708 38.5494C90.1708 38.3747 90.1964 38.1781 90.2458 37.9596C90.3022 37.6912 90.4028 37.3729 90.5462 37.0047C90.6963 36.6364 90.8627 36.2526 91.0436 35.8532C91.2313 35.4475 91.4164 35.0606 91.5973 34.6924C91.785 34.3241 91.948 34.009 92.0854 33.7468C92.0043 33.8217 91.9198 33.8998 91.832 33.9809C91.7509 34.062 91.6664 34.1525 91.5786 34.2524C91.2159 34.6581 90.884 35.045 90.5837 35.4132C90.2902 35.7752 90.0052 36.1341 89.7296 36.4898C89.4609 36.8393 89.1827 37.1981 88.8944 37.5664C88.7382 37.7724 88.6128 37.9284 88.5189 38.0345C88.4319 38.1343 88.35 38.203 88.2749 38.2404C88.2067 38.2717 88.1188 38.2872 88.0121 38.2872C87.856 38.2872 87.6777 38.2404 87.4772 38.1468C87.5651 38.0407 87.6248 37.813 87.6555 37.4634C87.693 37.1139 87.7118 36.7145 87.7118 36.2651C87.7118 35.8095 87.6964 35.3383 87.6649 34.8515C87.6342 34.3647 87.5872 33.9341 87.5241 33.5596C87.4866 33.622 87.4183 33.7593 87.3176 33.9715C87.2238 34.1837 87.1086 34.4458 86.9704 34.7579C86.839 35.0637 86.6982 35.3976 86.548 35.7596C86.3979 36.1153 86.2511 36.4742 86.1069 36.8362C85.9695 37.1919 85.8441 37.529 85.7315 37.8472C85.6257 38.1655 85.5438 38.4402 85.4875 38.6711C85.4312 38.902 85.4124 39.0611 85.4312 39.1485H84.5679C84.7056 38.799 84.862 38.4121 85.0372 37.9877C85.2186 37.557 85.4064 37.117 85.6001 36.6677C85.7946 36.2183 85.9849 35.7815 86.1726 35.357C86.3671 34.9326 86.5421 34.5457 86.6982 34.1962C86.8612 33.8404 86.996 33.5471 87.1018 33.3162C87.2084 33.0853 87.2775 32.9417 87.3082 32.8855C87.0335 32.8793 86.7519 32.9074 86.4636 32.9698C86.176 33.026 85.9073 33.1071 85.6564 33.2132C85.4064 33.3193 85.1936 33.441 85.0184 33.5783C84.8495 33.7156 84.74 33.8592 84.6899 34.0089C84.6837 34.0277 84.6711 34.037 84.6524 34.037C84.6024 34.037 84.5773 33.9964 84.5773 33.9153C84.5773 33.9028 84.5773 33.8904 84.5773 33.8779C84.5836 33.8592 84.5898 33.8404 84.596 33.8217C84.6524 33.6594 84.7212 33.5159 84.8025 33.3911C84.8901 33.2662 84.9746 33.1602 85.0559 33.0728C85.2624 32.8606 85.4943 32.7326 85.7503 32.689C86.0071 32.639 86.2793 32.6141 86.5668 32.6141H87.4772C87.6154 32.6141 87.7493 32.6141 87.8807 32.6141C88.0121 32.6141 88.1282 32.6484 88.228 32.717C88.3287 32.7794 88.3944 32.9043 88.4251 33.0915C88.4507 33.2226 88.472 33.4223 88.4908 33.6907C88.5164 33.9528 88.5352 34.2461 88.5471 34.5707C88.5659 34.8952 88.5821 35.2166 88.594 35.5349C88.6068 35.8532 88.6162 36.1278 88.6222 36.3587C88.6222 36.3712 88.6222 36.4087 88.6222 36.4711C88.629 36.5272 88.6316 36.599 88.6316 36.6864C88.6316 36.7675 88.629 36.8611 88.6222 36.9672C88.6222 37.0671 88.6162 37.1638 88.6034 37.2575C88.7348 37.0952 88.8978 36.8955 89.0914 36.6583C89.2919 36.4149 89.5078 36.1528 89.739 35.8719C89.9711 35.5849 90.2057 35.2977 90.4429 35.0107C90.681 34.7236 90.9096 34.4489 91.1281 34.1868C91.3473 33.9247 91.5385 33.6969 91.7006 33.5034C91.8695 33.3037 91.9949 33.1539 92.076 33.0541C92.2202 32.8918 92.4019 32.7794 92.6203 32.717C92.8396 32.6484 93.0589 32.6141 93.2773 32.6141H93.8592C93.7278 32.7139 93.5845 32.8824 93.4275 33.1196C93.2713 33.3568 93.1177 33.6126 92.9676 33.8872C92.8242 34.1619 92.6954 34.4115 92.5828 34.6362C92.4207 34.9732 92.2543 35.3383 92.0854 35.7315C91.9164 36.1247 91.7663 36.5147 91.6349 36.9017C91.5035 37.2887 91.4071 37.6475 91.3439 37.9783C91.3252 38.0781 91.3158 38.1843 91.3158 38.2966C91.3158 38.4339 91.3379 38.5556 91.3815 38.6617C91.4318 38.7615 91.5197 38.8115 91.6443 38.8115C91.7449 38.8115 91.8669 38.7709 92.0103 38.6898H92.0197C92.0325 38.6898 92.0419 38.7023 92.0478 38.7272C92.0547 38.746 92.0512 38.7615 92.0384 38.7741C91.9198 38.8989 91.7381 39.0049 91.4941 39.0924C91.2501 39.1798 91.0188 39.2234 90.7996 39.2234ZM95.3907 39.4481C94.9274 39.4481 94.5204 39.3794 94.1706 39.2421C93.8199 39.1111 93.5478 38.8958 93.3541 38.5962C93.1596 38.2966 93.0631 37.8972 93.0631 37.3979C93.0631 36.8986 93.1442 36.4118 93.3072 35.9375C93.4761 35.4569 93.7073 35.0107 94.0017 34.5987C94.2952 34.1868 94.6399 33.8249 95.0341 33.5128C95.4342 33.2007 95.8659 32.9573 96.3292 32.7826C96.7917 32.6078 97.2737 32.5204 97.7746 32.5204C98.3309 32.5204 98.7848 32.6141 99.1354 32.8013C99.4853 32.9885 99.7421 33.2444 99.905 33.569C100.074 33.8872 100.158 34.2461 100.158 34.6455C100.158 35.176 100.03 35.7315 99.7737 36.3119C99.5109 36.9049 99.1662 37.4385 98.7413 37.9128C98.3155 38.3871 97.8181 38.7615 97.249 39.0362C96.6859 39.3108 96.0664 39.4481 95.3907 39.4481ZM96.2448 38.9519C96.6134 38.8521 96.9768 38.6679 97.3335 38.3996C97.6901 38.1312 98.0118 37.8098 98.3002 37.4353C98.5877 37.0609 98.8163 36.6677 98.9853 36.2558C99.2481 35.6254 99.3795 35.0325 99.3795 34.477C99.3795 34.3896 99.3726 34.3054 99.3607 34.2243C99.3539 34.1432 99.3445 34.0651 99.3325 33.9902C99.2634 33.6095 99.1039 33.3411 98.8539 33.1851C98.603 33.0291 98.3215 32.9511 98.0092 32.9511C97.6833 32.9511 97.3522 33.0166 97.0144 33.1477C96.6765 33.2725 96.3855 33.4285 96.1415 33.6158C95.8412 33.853 95.5622 34.1244 95.3062 34.4302C95.0494 34.736 94.8336 35.0606 94.6586 35.4038C94.5085 35.7034 94.3865 36.0311 94.2926 36.3868C94.2047 36.7364 94.1612 37.0764 94.1612 37.4072C94.1612 37.7068 94.2047 37.9815 94.2926 38.2311C94.3796 38.4807 94.5238 38.6836 94.7243 38.8396C94.924 38.9894 95.1902 39.0643 95.5221 39.0643C95.7345 39.0643 95.9752 39.0268 96.2448 38.9519ZM102.514 39.3545C102.308 39.3545 102.17 39.2827 102.101 39.1392C102.032 38.9894 101.998 38.824 101.998 38.643C101.998 38.5181 102.007 38.3964 102.026 38.2779C102.045 38.153 102.064 38.0501 102.082 37.9689C102.133 37.7318 102.214 37.4509 102.326 37.1264C102.439 36.7956 102.567 36.4492 102.711 36.0872C102.861 35.719 103.018 35.357 103.181 35.0013C103.343 34.6393 103.5 34.3023 103.65 33.9902C103.806 33.6719 103.944 33.4004 104.063 33.1758C103.919 33.182 103.753 33.182 103.565 33.1758C103.378 33.1632 103.184 33.157 102.983 33.157C102.64 33.157 102.298 33.1851 101.96 33.2413C101.629 33.2912 101.356 33.4129 101.144 33.6064C101.044 33.7 100.972 33.7998 100.928 33.906C100.885 34.0121 100.862 34.1181 100.862 34.2243C100.862 34.3428 100.881 34.4583 100.919 34.5707C100.925 34.5832 100.928 34.5987 100.928 34.6175C100.928 34.6798 100.896 34.7111 100.834 34.7111C100.797 34.7111 100.768 34.6955 100.75 34.6643C100.687 34.5644 100.641 34.4645 100.609 34.3647C100.584 34.2586 100.571 34.1556 100.571 34.0558C100.571 33.881 100.603 33.7156 100.665 33.5596C100.728 33.4036 100.803 33.2756 100.891 33.1758C101.11 32.9198 101.407 32.7513 101.782 32.6702C102.158 32.5828 102.548 32.5392 102.955 32.5392C103.268 32.5392 103.571 32.5517 103.866 32.5766C104.166 32.6015 104.432 32.6203 104.663 32.6328C104.883 32.6453 105.155 32.6671 105.48 32.6983C105.805 32.7232 106.122 32.7358 106.428 32.7358C106.703 32.7358 106.95 32.717 107.169 32.6796C107.389 32.6421 107.548 32.5735 107.648 32.4736C107.667 32.5111 107.676 32.5547 107.676 32.6047C107.676 32.7358 107.601 32.8637 107.451 32.9885C107.301 33.1134 107.098 33.1976 106.841 33.2413C106.76 33.2538 106.666 33.2632 106.559 33.2694C106.459 33.2756 106.353 33.2787 106.24 33.2787C106.052 33.2787 105.865 33.2756 105.677 33.2694C105.489 33.2569 105.324 33.2444 105.18 33.2319C105.035 33.2194 104.939 33.2164 104.889 33.2226C104.851 33.2787 104.791 33.3817 104.71 33.5315C104.635 33.6813 104.554 33.8436 104.466 34.0183C104.378 34.193 104.301 34.3522 104.232 34.4958C104.113 34.7454 103.988 35.0262 103.856 35.3383C103.725 35.6504 103.599 35.9655 103.481 36.2838C103.362 36.6021 103.259 36.9049 103.171 37.1919C103.09 37.479 103.036 37.7255 103.012 37.9315C103.006 37.9502 103.002 37.9721 103.002 37.997C103.002 38.0158 103.002 38.0345 103.002 38.0532C103.002 38.1718 103.024 38.2747 103.068 38.3621C103.118 38.4432 103.193 38.4838 103.293 38.4838C103.381 38.4838 103.487 38.437 103.612 38.3434C103.738 38.2498 103.881 38.0938 104.044 37.8753C104.076 37.8379 104.104 37.8192 104.128 37.8192C104.166 37.8192 104.185 37.8504 104.185 37.9128C104.185 37.9564 104.169 38.0158 104.138 38.0907C104.113 38.1655 104.066 38.2529 103.997 38.3528C103.941 38.4339 103.85 38.5432 103.725 38.6804C103.599 38.8115 103.477 38.9238 103.359 39.0175C103.252 39.1049 103.121 39.1828 102.965 39.2515C102.809 39.3202 102.658 39.3545 102.514 39.3545ZM107.399 39.1485C107.474 38.8364 107.574 38.4901 107.699 38.1094C107.831 37.7224 107.977 37.3198 108.14 36.9017C108.309 36.4836 108.482 36.0685 108.656 35.6566C108.831 35.2447 109 34.8515 109.163 34.477C109.326 34.0964 109.514 33.7125 109.726 33.3255C109.77 33.2507 109.807 33.182 109.839 33.1196C109.877 33.0572 109.917 33.0041 109.961 32.9604C109.717 32.9667 109.454 32.9979 109.173 33.0541C108.897 33.104 108.632 33.1758 108.375 33.2694C108.125 33.363 107.909 33.4722 107.727 33.597C107.552 33.7219 107.44 33.8592 107.389 34.0089C107.383 34.0277 107.371 34.037 107.352 34.037C107.296 34.037 107.267 33.9934 107.267 33.906C107.267 33.8872 107.273 33.8592 107.286 33.8217C107.342 33.6594 107.412 33.5159 107.493 33.3911C107.581 33.2662 107.668 33.1602 107.755 33.0728C107.962 32.8606 108.193 32.7326 108.45 32.689C108.707 32.639 108.979 32.6141 109.266 32.6141H111.388C111.237 32.7264 111.078 32.9105 110.909 33.1664C110.74 33.416 110.574 33.6969 110.411 34.0089C110.249 34.321 110.096 34.6268 109.952 34.9264C109.814 35.226 109.698 35.4787 109.604 35.6847C109.561 35.7845 109.498 35.9375 109.417 36.1434C109.336 36.3432 109.244 36.5709 109.144 36.8268C109.051 37.0827 108.96 37.3479 108.872 37.6226C108.784 37.8909 108.713 38.1406 108.656 38.3715C108.6 38.6024 108.572 38.7928 108.572 38.9426C108.572 38.9862 108.575 39.0268 108.581 39.0643C108.594 39.0955 108.604 39.1236 108.609 39.1485H107.399ZM111.907 39.1485C111.982 39.005 112.033 38.824 112.057 38.6055C112.089 38.3871 112.108 38.1562 112.114 37.9128C112.126 37.6632 112.139 37.4228 112.151 37.1919C112.164 36.9735 112.173 36.7488 112.179 36.5179C112.186 36.287 112.189 36.053 112.189 35.8158C112.189 35.485 112.177 35.1604 112.151 34.8421C112.132 34.5176 112.095 34.2211 112.039 33.9528C112.014 33.8092 111.963 33.6719 111.888 33.5409C111.82 33.4098 111.732 33.3443 111.626 33.3443C111.569 33.3443 111.507 33.3692 111.438 33.4192C111.376 33.4628 111.304 33.5471 111.222 33.6719C111.216 33.6844 111.203 33.6813 111.184 33.6626C111.173 33.6438 111.169 33.6283 111.175 33.6158C111.225 33.4598 111.325 33.2912 111.475 33.1102C111.626 32.9292 111.785 32.7794 111.954 32.6609C112.042 32.5985 112.12 32.5547 112.189 32.5298C112.264 32.5049 112.333 32.4924 112.395 32.4924C112.583 32.4924 112.727 32.5891 112.827 32.7826C112.928 32.9698 112.999 33.182 113.043 33.4192C113.087 33.6564 113.115 33.9434 113.127 34.2804C113.146 34.6112 113.155 34.9576 113.155 35.3196C113.155 35.7003 113.149 36.0779 113.137 36.4524C113.125 36.8268 113.108 37.1607 113.09 37.4541C113.071 37.7474 113.056 37.9658 113.043 38.1094C113.256 37.816 113.487 37.4696 113.737 37.0702C113.988 36.6708 114.242 36.2526 114.498 35.8158C114.76 35.3789 115.008 34.9545 115.239 34.5426C115.471 34.1244 115.674 33.7468 115.849 33.4098C116.031 33.0728 116.162 32.8075 116.243 32.6141H117.088C116.994 32.7638 116.844 33.001 116.637 33.3255C116.431 33.6438 116.19 34.0121 115.915 34.4302C115.646 34.8484 115.361 35.2884 115.061 35.7502C114.76 36.2058 114.469 36.6521 114.188 37.089C113.906 37.5196 113.656 37.9034 113.437 38.2404C113.318 38.4339 113.193 38.6243 113.062 38.8115C112.937 38.9925 112.78 39.1017 112.592 39.1392C112.574 39.1454 112.545 39.1485 112.508 39.1485H111.907ZM117.465 39.1485C117.365 39.1485 117.29 39.1079 117.24 39.0268C117.196 38.9457 117.174 38.8396 117.174 38.7085C117.174 38.5275 117.202 38.3153 117.259 38.0719C117.321 37.8285 117.396 37.5758 117.484 37.3136C117.578 37.0515 117.671 36.8019 117.765 36.5647C117.859 36.3213 117.94 36.1153 118.009 35.9468H117.493C117.443 35.9468 117.418 35.9281 117.418 35.8907C117.418 35.8532 117.446 35.8032 117.503 35.7409C117.559 35.6722 117.625 35.6129 117.7 35.563C117.775 35.513 117.837 35.4881 117.887 35.4881H118.206C118.363 35.1198 118.51 34.7766 118.648 34.4583C118.785 34.1338 118.957 33.7905 119.164 33.4285C119.214 33.3411 119.261 33.26 119.305 33.1851C119.348 33.104 119.398 33.0322 119.455 32.9698C119.117 33.0135 118.77 33.079 118.413 33.1664C118.062 33.2538 117.75 33.3661 117.474 33.5034C117.199 33.6407 117.005 33.803 116.892 33.9902C116.887 34.009 116.874 34.0183 116.855 34.0183C116.842 34.0183 116.833 34.0058 116.827 33.9809C116.814 33.9559 116.811 33.9278 116.817 33.8966C116.88 33.7343 116.958 33.5783 117.052 33.4285C117.146 33.2787 117.236 33.1602 117.324 33.0728C117.462 32.9292 117.649 32.8262 117.887 32.7638C118.125 32.7015 118.369 32.6609 118.619 32.6421C118.876 32.6234 119.095 32.6141 119.276 32.6141H121.135C121.354 32.6141 121.548 32.6078 121.717 32.5953C121.891 32.5766 122.039 32.5672 122.158 32.5672C122.351 32.5672 122.464 32.6141 122.496 32.7077C122.501 32.7326 122.505 32.7576 122.505 32.7826C122.511 32.8013 122.514 32.8262 122.514 32.8575C122.514 32.9823 122.486 33.1258 122.43 33.2881C122.373 33.4441 122.311 33.597 122.242 33.7468C122.18 33.8904 122.129 34.0089 122.092 34.1026C122.086 34.1338 122.067 34.1556 122.036 34.1681C122.011 34.1806 121.985 34.1868 121.961 34.1868C121.929 34.1868 121.901 34.1806 121.876 34.1681C121.857 34.1556 121.851 34.1151 121.857 34.0464C121.87 33.9715 121.885 33.8872 121.904 33.7936C121.923 33.7 121.932 33.6189 121.932 33.5502C121.932 33.3505 121.851 33.1976 121.688 33.0915C121.532 32.9792 121.335 32.923 121.097 32.923C120.922 32.923 120.778 32.9386 120.665 32.9698C120.553 32.9947 120.462 33.0603 120.393 33.1664C120.143 33.5347 119.915 33.9122 119.708 34.2992C119.508 34.6861 119.32 35.0824 119.145 35.4881H121.595C121.613 35.4881 121.6 35.5255 121.557 35.6004C121.519 35.6753 121.469 35.7534 121.407 35.8345C121.351 35.9094 121.3 35.9468 121.257 35.9468H118.938C118.869 36.1215 118.788 36.3338 118.694 36.5834C118.601 36.833 118.513 37.0796 118.432 37.323C118.357 37.5664 118.297 37.7755 118.253 37.9502C118.216 38.1 118.197 38.2342 118.197 38.3528C118.197 38.5088 118.244 38.6274 118.338 38.7085C118.438 38.7896 118.61 38.8302 118.854 38.8302C119.192 38.8302 119.53 38.8177 119.868 38.7928C120.205 38.7615 120.537 38.6992 120.862 38.6055C121.144 38.5244 121.394 38.4152 121.613 38.2779C121.839 38.1406 122.002 37.969 122.101 37.763C122.114 37.7381 122.133 37.7255 122.158 37.7255C122.201 37.7255 122.223 37.7598 122.223 37.8285C122.223 37.841 122.22 37.8566 122.214 37.8753C122.214 37.8941 122.211 37.9159 122.205 37.9409C122.154 38.1032 122.095 38.2467 122.026 38.3715C121.957 38.4964 121.885 38.6024 121.81 38.6898C121.635 38.902 121.41 39.033 121.135 39.083C120.859 39.1267 120.584 39.1485 120.309 39.1485H117.465ZM127.17 39.3732C126.645 39.2858 126.26 39.0581 126.016 38.6898C125.779 38.3215 125.659 37.8847 125.659 37.3792C125.659 37.0109 125.719 36.6271 125.838 36.2277C125.957 35.822 126.126 35.4257 126.344 35.0387C126.57 34.6518 126.839 34.2929 127.151 33.9621C127.465 33.6251 127.818 33.3381 128.212 33.1009C128.606 32.8637 129.035 32.6983 129.498 32.6047C129.779 32.5485 130.049 32.5204 130.305 32.5204C130.806 32.5204 131.206 32.6203 131.506 32.82C131.807 33.0135 131.957 33.2632 131.957 33.569C131.957 33.6313 131.951 33.6938 131.938 33.7562C131.932 33.8124 131.913 33.8747 131.882 33.9434C131.813 34.1244 131.697 34.2867 131.534 34.4302C131.378 34.5675 131.197 34.6736 130.99 34.7485C130.79 34.8234 130.584 34.8547 130.371 34.8421C130.271 34.8296 130.183 34.7953 130.108 34.7392C130.04 34.6768 130.005 34.6019 130.005 34.5145C130.005 34.4271 130.042 34.3335 130.117 34.2336C130.186 34.2586 130.265 34.2711 130.352 34.2711C130.509 34.2711 130.662 34.2336 130.812 34.1587C130.962 34.0838 131.087 33.9809 131.187 33.8498C131.288 33.7187 131.337 33.5721 131.337 33.4098C131.337 33.1913 131.262 33.0478 131.112 32.9792C130.962 32.9043 130.793 32.8668 130.605 32.8668C130.481 32.8668 130.355 32.8793 130.23 32.9043C130.111 32.923 130.014 32.9417 129.939 32.9604C129.582 33.0541 129.216 33.2257 128.841 33.4753C128.472 33.7187 128.134 34.0183 127.827 34.3741C127.521 34.7236 127.283 35.1074 127.114 35.5255C126.989 35.8313 126.892 36.1403 126.823 36.4524C126.755 36.7644 126.72 37.0609 126.72 37.3417C126.72 37.7037 126.779 38.022 126.898 38.2966C127.023 38.5712 127.221 38.7615 127.489 38.8677C127.733 38.9613 127.984 39.0081 128.24 39.0081C128.653 39.0081 129.07 38.9083 129.488 38.7085C129.914 38.5088 130.305 38.256 130.662 37.9502C130.881 37.7568 131.078 37.557 131.253 37.3511C131.429 37.1451 131.563 36.9267 131.656 36.6958C131.776 36.7707 131.835 36.8798 131.835 37.0234C131.835 37.1358 131.801 37.2575 131.732 37.3885C131.669 37.5196 131.594 37.6413 131.506 37.7536C131.425 37.866 131.354 37.9534 131.29 38.0158C130.853 38.4713 130.327 38.8209 129.714 39.0643C129.107 39.3077 128.491 39.4294 127.865 39.4294C127.628 39.4294 127.395 39.4107 127.17 39.3732ZM136.946 39.2234C136.708 39.2234 136.527 39.161 136.402 39.0362C136.277 38.9113 136.192 38.7522 136.149 38.5587C136.105 38.3653 136.077 38.1655 136.064 37.9596C136.064 37.841 136.07 37.7006 136.083 37.5383C136.096 37.376 136.111 37.22 136.13 37.0702C136.155 36.9142 136.173 36.7987 136.186 36.7238H134.037C133.637 37.142 133.255 37.5508 132.892 37.9502C132.535 38.3434 132.185 38.7428 131.841 39.1485H130.902C131.065 38.9987 131.278 38.799 131.54 38.5494C131.809 38.2935 132.113 38.0032 132.451 37.6787C132.789 37.3542 133.139 37.0109 133.502 36.649C133.871 36.2807 134.24 35.9125 134.609 35.5443C134.979 35.1698 135.326 34.8109 135.651 34.4677C135.983 34.1181 136.277 33.803 136.533 33.5221C136.659 33.3849 136.774 33.2475 136.881 33.1102C136.993 32.9667 137.119 32.8481 137.256 32.7545C137.393 32.6609 137.562 32.6141 137.763 32.6141H138.439C138.332 32.7139 138.226 32.8824 138.12 33.1196C138.013 33.3568 137.916 33.6126 137.829 33.8872C137.748 34.1619 137.678 34.4115 137.622 34.6362C137.541 34.9732 137.457 35.3383 137.369 35.7315C137.288 36.1247 137.222 36.5147 137.172 36.9017C137.121 37.2887 137.106 37.6475 137.125 37.9783C137.131 38.0969 137.153 38.2217 137.19 38.3528C137.234 38.4776 137.294 38.5868 137.369 38.6804C137.45 38.7678 137.55 38.8115 137.669 38.8115C137.776 38.8115 137.891 38.7709 138.016 38.6898L138.073 38.7741C137.992 38.8989 137.835 39.0049 137.603 39.0924C137.378 39.1798 137.159 39.2234 136.946 39.2234ZM133.192 34.477C133.092 34.3709 133.017 34.2617 132.967 34.1494C132.923 34.037 132.901 33.9309 132.901 33.8311C132.901 33.7062 132.926 33.5877 132.976 33.4753C133.033 33.3568 133.098 33.2569 133.173 33.1758C133.324 33.0072 133.511 32.8824 133.737 32.8013C133.962 32.7202 134.2 32.6702 134.45 32.6515C134.707 32.6266 134.951 32.6141 135.182 32.6141H137.284C137.153 32.7451 136.952 32.8481 136.684 32.923C136.421 32.9917 136.133 33.0447 135.82 33.0821C135.507 33.1134 135.204 33.1445 134.91 33.1758C134.622 33.2007 134.384 33.2351 134.196 33.2787C133.865 33.3536 133.611 33.4972 133.436 33.7094C133.267 33.9215 133.186 34.1775 133.192 34.477ZM134.45 36.2558H136.252C136.327 35.8438 136.415 35.4319 136.515 35.02C136.621 34.6081 136.715 34.2461 136.796 33.9341C136.415 34.296 136.023 34.6736 135.623 35.0668C135.229 35.4538 134.838 35.8501 134.45 36.2558ZM138.465 39.1485C138.54 38.8364 138.64 38.4901 138.765 38.1094C138.897 37.7224 139.044 37.3198 139.207 36.9017C139.375 36.4836 139.548 36.0685 139.723 35.6566C139.898 35.2447 140.067 34.8515 140.229 34.477C140.392 34.0964 140.58 33.7125 140.793 33.3255C140.836 33.2507 140.874 33.182 140.905 33.1196C140.943 33.0572 140.984 33.0041 141.027 32.9604C140.783 32.9667 140.52 32.9979 140.239 33.0541C139.963 33.104 139.698 33.1758 139.441 33.2694C139.191 33.363 138.975 33.4722 138.794 33.597C138.619 33.7219 138.506 33.8592 138.456 34.0089C138.45 34.0277 138.437 34.037 138.418 34.037C138.362 34.037 138.334 33.9934 138.334 33.906C138.334 33.8872 138.34 33.8592 138.352 33.8217C138.409 33.6594 138.478 33.5159 138.559 33.3911C138.647 33.2662 138.734 33.1602 138.822 33.0728C139.028 32.8606 139.259 32.7326 139.516 32.689C139.773 32.639 140.045 32.6141 140.333 32.6141H142.613C142.876 32.6141 143.111 32.6421 143.317 32.6983C143.524 32.7483 143.696 32.82 143.833 32.9136C144.015 33.0322 144.147 33.1789 144.228 33.3536C144.309 33.5221 144.35 33.7 144.35 33.8872C144.35 34.1743 144.287 34.4302 144.162 34.6549C144.037 34.8796 143.871 35.073 143.665 35.2353C143.464 35.3976 143.239 35.5287 142.989 35.6285C142.739 35.7284 142.485 35.8032 142.229 35.8532L141.928 35.9094C142.078 36.4149 142.27 36.8705 142.501 37.2762C142.732 37.6819 142.973 38.0376 143.223 38.3434C143.473 38.6492 143.699 38.9113 143.899 39.1298C143.805 39.1485 143.661 39.1579 143.467 39.1579C143.298 39.1579 143.136 39.1547 142.979 39.1485C142.823 39.136 142.745 39.1298 142.745 39.1298C142.589 39.1298 142.435 39.0455 142.285 38.877C142.135 38.7085 141.991 38.4932 141.853 38.2311C141.716 37.9627 141.59 37.685 141.478 37.3979C141.371 37.1045 141.281 36.833 141.206 36.5834C141.136 36.3338 141.09 36.1403 141.065 36.003C141.065 35.9843 141.061 35.9655 141.055 35.9468C141.055 35.9281 141.055 35.9062 141.055 35.8813C141.055 35.8438 141.061 35.8126 141.074 35.7877C141.093 35.7564 141.127 35.7377 141.177 35.7315C141.491 35.6941 141.775 35.6379 142.031 35.563C142.288 35.4819 142.523 35.3726 142.735 35.2353C142.948 35.0918 143.12 34.917 143.252 34.7111C143.383 34.4989 143.449 34.2492 143.449 33.9621C143.449 33.7312 143.383 33.5221 143.252 33.3349C143.126 33.1415 142.923 33.0135 142.642 32.9511C142.566 32.9324 142.485 32.9198 142.398 32.9136C142.316 32.9074 142.232 32.9011 142.144 32.8949C142.007 33.0821 141.863 33.3068 141.712 33.569C141.562 33.8311 141.415 34.1088 141.271 34.4021C141.127 34.6892 140.99 34.9764 140.858 35.2634C140.733 35.5443 140.62 35.8032 140.52 36.0404C140.47 36.1715 140.395 36.3619 140.295 36.6115C140.201 36.8611 140.104 37.1326 140.004 37.426C139.904 37.7193 139.817 38.0032 139.741 38.2779C139.672 38.5462 139.638 38.7678 139.638 38.9426C139.638 39.0362 139.651 39.1049 139.676 39.1485H138.465ZM148.265 39.2609C148.083 39.2296 147.914 39.186 147.758 39.1298C147.601 39.0674 147.467 38.9894 147.355 38.8958C147.273 38.8209 147.214 38.7335 147.176 38.6336C147.139 38.5275 147.12 38.4152 147.12 38.2966C147.12 38.0969 147.154 37.8909 147.223 37.6787C147.292 37.4603 147.351 37.273 147.402 37.117C147.52 36.7675 147.661 36.3962 147.824 36.003C147.993 35.6098 148.162 35.2291 148.331 34.8609C148.506 34.4926 148.662 34.165 148.8 33.8779C148.937 33.5908 149.041 33.3817 149.11 33.2507C149.134 33.2007 149.157 33.1539 149.175 33.1102C149.2 33.0666 149.225 33.026 149.25 32.9885C149.187 32.9947 149.128 33.0041 149.072 33.0166C149.016 33.0228 148.962 33.0291 148.913 33.0353C148.637 33.0728 148.35 33.1352 148.049 33.2226C147.755 33.3037 147.489 33.4067 147.251 33.5315C147.013 33.6564 146.841 33.8092 146.735 33.9902C146.728 34.009 146.716 34.0183 146.698 34.0183C146.685 34.0183 146.676 34.0058 146.67 33.9809C146.657 33.9559 146.653 33.9278 146.66 33.8966C146.722 33.7343 146.801 33.5783 146.895 33.4285C146.989 33.2787 147.079 33.1602 147.167 33.0728C147.304 32.9292 147.492 32.8262 147.73 32.7638C147.967 32.7015 148.211 32.6609 148.462 32.6421C148.718 32.6234 148.937 32.6141 149.119 32.6141H151.043C151.674 32.6141 152.181 32.7326 152.564 32.9698C152.951 33.207 153.232 33.519 153.408 33.906C153.583 34.293 153.671 34.7111 153.671 35.1604C153.671 35.2666 153.668 35.3726 153.662 35.4787C153.655 35.5849 153.643 35.6909 153.624 35.797C153.53 36.365 153.345 36.8705 153.07 37.3136C152.801 37.7505 152.466 38.1187 152.066 38.4183C151.665 38.7179 151.215 38.9457 150.715 39.1017C150.22 39.2515 149.701 39.3264 149.157 39.3264C149.012 39.3264 148.866 39.3202 148.716 39.3077C148.565 39.3015 148.415 39.2858 148.265 39.2609ZM148.5 38.8958C148.581 38.902 148.662 38.9113 148.744 38.9238C148.825 38.9301 148.906 38.9332 148.988 38.9332C149.431 38.9332 149.851 38.8552 150.245 38.6992C150.645 38.5432 151.006 38.3247 151.325 38.0438C151.65 37.763 151.925 37.4385 152.151 37.0702C152.376 36.702 152.538 36.3026 152.639 35.8719C152.707 35.5849 152.742 35.3102 152.742 35.0481C152.742 34.7672 152.697 34.4989 152.61 34.243C152.529 33.9809 152.395 33.7468 152.207 33.5409C152.038 33.3536 151.813 33.2101 151.531 33.1102C151.25 33.0041 150.989 32.9417 150.752 32.923C150.696 32.9168 150.64 32.9136 150.583 32.9136C150.527 32.9074 150.471 32.9043 150.414 32.9043C150.302 33.0541 150.186 33.2319 150.067 33.4379C149.948 33.6376 149.832 33.8436 149.72 34.0558C149.613 34.2679 149.519 34.4615 149.438 34.6362C149.225 35.0918 149.025 35.5474 148.838 36.003C148.65 36.4586 148.481 36.9236 148.331 37.3979C148.286 37.5352 148.243 37.6912 148.199 37.866C148.155 38.0407 148.134 38.203 148.134 38.3528C148.134 38.4901 148.158 38.6118 148.209 38.7179C148.265 38.8177 148.361 38.877 148.5 38.8958ZM154.347 39.1485C154.246 39.1485 154.171 39.1079 154.121 39.0268C154.077 38.9457 154.056 38.8396 154.056 38.7085C154.056 38.5275 154.084 38.3153 154.14 38.0719C154.203 37.8285 154.278 37.5758 154.366 37.3136C154.459 37.0515 154.553 36.8019 154.647 36.5647C154.741 36.3213 154.822 36.1153 154.891 35.9468H154.375C154.325 35.9468 154.3 35.9281 154.3 35.8907C154.3 35.8532 154.328 35.8032 154.384 35.7409C154.441 35.6722 154.506 35.6129 154.581 35.563C154.656 35.513 154.719 35.4881 154.769 35.4881H155.088C155.244 35.1198 155.391 34.7766 155.529 34.4583C155.667 34.1338 155.839 33.7905 156.045 33.4285C156.095 33.3411 156.142 33.26 156.186 33.1851C156.23 33.104 156.28 33.0322 156.336 32.9698C155.999 33.0135 155.651 33.079 155.295 33.1664C154.944 33.2538 154.631 33.3661 154.356 33.5034C154.081 33.6407 153.887 33.803 153.774 33.9902C153.767 34.009 153.755 34.0183 153.737 34.0183C153.724 34.0183 153.714 34.0058 153.709 33.9809C153.696 33.9559 153.692 33.9278 153.699 33.8966C153.761 33.7343 153.84 33.5783 153.934 33.4285C154.028 33.2787 154.118 33.1602 154.206 33.0728C154.343 32.9292 154.531 32.8262 154.769 32.7638C155.006 32.7015 155.25 32.6609 155.501 32.6421C155.757 32.6234 155.976 32.6141 156.158 32.6141H158.016C158.235 32.6141 158.429 32.6078 158.598 32.5953C158.773 32.5766 158.92 32.5672 159.039 32.5672C159.233 32.5672 159.346 32.6141 159.377 32.7077C159.383 32.7326 159.387 32.7576 159.387 32.7826C159.393 32.8013 159.396 32.8262 159.396 32.8575C159.396 32.9823 159.368 33.1258 159.312 33.2881C159.255 33.4441 159.192 33.597 159.124 33.7468C159.061 33.8904 159.011 34.0089 158.974 34.1026C158.967 34.1338 158.948 34.1556 158.917 34.1681C158.892 34.1806 158.867 34.1868 158.842 34.1868C158.811 34.1868 158.783 34.1806 158.758 34.1681C158.739 34.1556 158.732 34.1151 158.739 34.0464C158.751 33.9715 158.767 33.8872 158.786 33.7936C158.805 33.7 158.814 33.6189 158.814 33.5502C158.814 33.3505 158.732 33.1976 158.57 33.0915C158.413 32.9792 158.216 32.923 157.979 32.923C157.803 32.923 157.66 32.9386 157.547 32.9698C157.434 32.9947 157.343 33.0603 157.275 33.1664C157.024 33.5347 156.796 33.9122 156.59 34.2992C156.389 34.6861 156.202 35.0824 156.027 35.4881H158.476C158.495 35.4881 158.482 35.5255 158.439 35.6004C158.401 35.6753 158.351 35.7534 158.289 35.8345C158.232 35.9094 158.182 35.9468 158.138 35.9468H155.82C155.751 36.1215 155.67 36.3338 155.576 36.5834C155.482 36.833 155.394 37.0796 155.313 37.323C155.238 37.5664 155.179 37.7755 155.135 37.9502C155.098 38.1 155.079 38.2342 155.079 38.3528C155.079 38.5088 155.126 38.6274 155.22 38.7085C155.319 38.7896 155.492 38.8302 155.736 38.8302C156.074 38.8302 156.411 38.8177 156.749 38.7928C157.087 38.7615 157.418 38.6992 157.744 38.6055C158.026 38.5244 158.276 38.4152 158.495 38.2779C158.72 38.1406 158.882 37.969 158.983 37.763C158.995 37.7381 159.014 37.7255 159.039 37.7255C159.083 37.7255 159.105 37.7598 159.105 37.8285C159.105 37.841 159.102 37.8566 159.096 37.8753C159.096 37.8941 159.092 37.9159 159.086 37.9409C159.036 38.1032 158.976 38.2467 158.908 38.3715C158.839 38.4964 158.767 38.6024 158.692 38.6898C158.516 38.902 158.291 39.033 158.016 39.083C157.741 39.1267 157.465 39.1485 157.19 39.1485H154.347ZM164.635 39.2234C164.397 39.2234 164.216 39.161 164.09 39.0362C163.965 38.9113 163.881 38.7522 163.837 38.5587C163.793 38.3653 163.765 38.1655 163.753 37.9596C163.753 37.841 163.759 37.7006 163.771 37.5383C163.784 37.376 163.799 37.22 163.818 37.0702C163.843 36.9142 163.862 36.7987 163.875 36.7238H161.725C161.325 37.142 160.943 37.5508 160.58 37.9502C160.224 38.3434 159.873 38.7428 159.529 39.1485H158.591C158.754 38.9987 158.966 38.799 159.229 38.5494C159.498 38.2935 159.801 38.0032 160.139 37.6787C160.477 37.3542 160.828 37.0109 161.19 36.649C161.56 36.2807 161.928 35.9125 162.298 35.5443C162.667 35.1698 163.014 34.8109 163.34 34.4677C163.671 34.1181 163.965 33.803 164.222 33.5221C164.347 33.3849 164.462 33.2475 164.569 33.1102C164.682 32.9667 164.807 32.8481 164.944 32.7545C165.082 32.6609 165.251 32.6141 165.451 32.6141H166.127C166.02 32.7139 165.915 32.8824 165.808 33.1196C165.701 33.3568 165.605 33.6126 165.517 33.8872C165.436 34.1619 165.367 34.4115 165.31 34.6362C165.229 34.9732 165.145 35.3383 165.057 35.7315C164.976 36.1247 164.91 36.5147 164.86 36.9017C164.81 37.2887 164.794 37.6475 164.813 37.9783C164.819 38.0969 164.841 38.2217 164.879 38.3528C164.922 38.4776 164.982 38.5868 165.057 38.6804C165.138 38.7678 165.239 38.8115 165.357 38.8115C165.464 38.8115 165.579 38.7709 165.705 38.6898L165.761 38.7741C165.68 38.8989 165.523 39.0049 165.292 39.0924C165.066 39.1798 164.847 39.2234 164.635 39.2234ZM160.881 34.477C160.781 34.3709 160.706 34.2617 160.655 34.1494C160.612 34.037 160.59 33.9309 160.59 33.8311C160.59 33.7062 160.614 33.5877 160.665 33.4753C160.721 33.3568 160.787 33.2569 160.862 33.1758C161.012 33.0072 161.2 32.8824 161.425 32.8013C161.65 32.7202 161.888 32.6702 162.138 32.6515C162.395 32.6266 162.639 32.6141 162.87 32.6141H164.973C164.841 32.7451 164.641 32.8481 164.372 32.923C164.109 32.9917 163.822 33.0447 163.509 33.0821C163.195 33.1134 162.892 33.1445 162.598 33.1758C162.311 33.2007 162.073 33.2351 161.885 33.2787C161.553 33.3536 161.3 33.4972 161.125 33.7094C160.956 33.9215 160.875 34.1775 160.881 34.477ZM162.138 36.2558H163.94C164.015 35.8438 164.103 35.4319 164.203 35.02C164.31 34.6081 164.404 34.2461 164.485 33.9341C164.103 34.296 163.712 34.6736 163.311 35.0668C162.917 35.4538 162.526 35.8501 162.138 36.2558ZM166.822 39.1485C166.691 39.1485 166.594 39.1017 166.531 39.0081C166.475 38.9145 166.447 38.7866 166.447 38.6243C166.447 38.5307 166.456 38.4277 166.475 38.3153C166.494 38.203 166.516 38.0844 166.541 37.9596C166.616 37.6288 166.732 37.2637 166.888 36.8643C167.051 36.4586 167.235 36.0436 167.442 35.6192C167.654 35.1885 167.868 34.7704 168.08 34.3647C168.299 33.959 168.502 33.5877 168.69 33.2507C168.703 33.2257 168.728 33.1789 168.765 33.1102C168.809 33.0415 168.844 32.9917 168.868 32.9604C168.624 32.9667 168.362 32.9979 168.08 33.0541C167.804 33.104 167.539 33.1758 167.282 33.2694C167.032 33.363 166.816 33.4722 166.635 33.597C166.46 33.7219 166.347 33.8592 166.297 34.0089C166.291 34.0277 166.278 34.037 166.259 34.037C166.203 34.037 166.175 33.9934 166.175 33.906C166.175 33.8872 166.181 33.8592 166.194 33.8217C166.256 33.6594 166.328 33.5159 166.409 33.3911C166.49 33.2662 166.575 33.1602 166.663 33.0728C166.869 32.8606 167.101 32.7326 167.357 32.689C167.614 32.639 167.886 32.6141 168.174 32.6141H170.304C170.167 32.7202 170.004 32.9136 169.816 33.1945C169.629 33.4691 169.435 33.7811 169.234 34.1307C169.147 34.2867 169.037 34.4895 168.906 34.7392C168.775 34.9888 168.637 35.2666 168.493 35.5724C168.349 35.8719 168.211 36.1747 168.08 36.4804C167.949 36.7862 167.836 37.0764 167.742 37.3511C167.648 37.6194 167.589 37.8504 167.564 38.0438C167.558 38.0751 167.554 38.1062 167.554 38.1375C167.554 38.1624 167.554 38.1905 167.554 38.2217C167.554 38.3964 167.601 38.5432 167.695 38.6617C167.789 38.7741 167.964 38.8302 168.221 38.8302C168.553 38.8302 168.887 38.8177 169.225 38.7928C169.569 38.7615 169.904 38.6992 170.229 38.6055C170.505 38.5244 170.755 38.4152 170.98 38.2779C171.205 38.1406 171.368 37.969 171.468 37.763C171.481 37.7381 171.496 37.7255 171.515 37.7255C171.559 37.7255 171.581 37.7598 171.581 37.8285C171.581 37.841 171.577 37.8566 171.571 37.8753C171.571 37.8941 171.568 37.9159 171.562 37.9409C171.512 38.1032 171.453 38.2467 171.384 38.3715C171.315 38.4964 171.246 38.6024 171.177 38.6898C171.002 38.902 170.774 39.033 170.492 39.083C170.216 39.1267 169.942 39.1485 169.666 39.1485H166.822ZM171.806 39.1485C171.706 39.1485 171.631 39.1079 171.581 39.0268C171.537 38.9457 171.515 38.8396 171.515 38.7085C171.515 38.5275 171.543 38.3153 171.6 38.0719C171.663 37.8285 171.738 37.5758 171.825 37.3136C171.919 37.0515 172.012 36.8019 172.106 36.5647C172.2 36.3213 172.282 36.1153 172.35 35.9468H171.834C171.785 35.9468 171.759 35.9281 171.759 35.8907C171.759 35.8532 171.787 35.8032 171.844 35.7409C171.9 35.6722 171.966 35.6129 172.041 35.563C172.116 35.513 172.179 35.4881 172.228 35.4881H172.547C172.704 35.1198 172.851 34.7766 172.989 34.4583C173.127 34.1338 173.298 33.7905 173.505 33.4285C173.555 33.3411 173.602 33.26 173.646 33.1851C173.69 33.104 173.739 33.0322 173.796 32.9698C173.458 33.0135 173.111 33.079 172.754 33.1664C172.404 33.2538 172.091 33.3661 171.815 33.5034C171.541 33.6407 171.346 33.803 171.233 33.9902C171.228 34.009 171.215 34.0183 171.196 34.0183C171.184 34.0183 171.175 34.0058 171.168 33.9809C171.156 33.9559 171.152 33.9278 171.158 33.8966C171.222 33.7343 171.299 33.5783 171.393 33.4285C171.487 33.2787 171.578 33.1602 171.665 33.0728C171.803 32.9292 171.991 32.8262 172.228 32.7638C172.466 32.7015 172.71 32.6609 172.96 32.6421C173.217 32.6234 173.436 32.6141 173.617 32.6141H175.476C175.695 32.6141 175.889 32.6078 176.058 32.5953C176.233 32.5766 176.38 32.5672 176.499 32.5672C176.693 32.5672 176.806 32.6141 176.837 32.7077C176.843 32.7326 176.846 32.7576 176.846 32.7826C176.853 32.8013 176.855 32.8262 176.855 32.8575C176.855 32.9823 176.827 33.1258 176.771 33.2881C176.715 33.4441 176.652 33.597 176.583 33.7468C176.521 33.8904 176.47 34.0089 176.433 34.1026C176.427 34.1338 176.408 34.1556 176.377 34.1681C176.352 34.1806 176.327 34.1868 176.302 34.1868C176.271 34.1868 176.243 34.1806 176.217 34.1681C176.198 34.1556 176.192 34.1151 176.198 34.0464C176.211 33.9715 176.226 33.8872 176.245 33.7936C176.264 33.7 176.273 33.6189 176.273 33.5502C176.273 33.3505 176.192 33.1976 176.029 33.0915C175.873 32.9792 175.676 32.923 175.438 32.923C175.263 32.923 175.119 32.9386 175.006 32.9698C174.894 32.9947 174.803 33.0603 174.734 33.1664C174.484 33.5347 174.256 33.9122 174.049 34.2992C173.849 34.6861 173.662 35.0824 173.486 35.4881H175.936C175.954 35.4881 175.942 35.5255 175.898 35.6004C175.86 35.6753 175.811 35.7534 175.748 35.8345C175.692 35.9094 175.642 35.9468 175.598 35.9468H173.279C173.211 36.1215 173.129 36.3338 173.035 36.5834C172.942 36.833 172.855 37.0796 172.773 37.323C172.698 37.5664 172.639 37.7755 172.594 37.9502C172.557 38.1 172.538 38.2342 172.538 38.3528C172.538 38.5088 172.585 38.6274 172.679 38.7085C172.779 38.7896 172.951 38.8302 173.195 38.8302C173.533 38.8302 173.871 38.8177 174.209 38.7928C174.546 38.7615 174.878 38.6992 175.203 38.6055C175.485 38.5244 175.736 38.4152 175.954 38.2779C176.18 38.1406 176.343 37.969 176.442 37.763C176.455 37.7381 176.474 37.7255 176.499 37.7255C176.543 37.7255 176.564 37.7598 176.564 37.8285C176.564 37.841 176.562 37.8566 176.555 37.8753C176.555 37.8941 176.552 37.9159 176.546 37.9409C176.496 38.1032 176.436 38.2467 176.367 38.3715C176.299 38.4964 176.226 38.6024 176.151 38.6898C175.976 38.902 175.751 39.033 175.476 39.083C175.201 39.1267 174.925 39.1485 174.65 39.1485H171.806ZM177.418 39.1485C177.493 38.8364 177.592 38.4901 177.718 38.1094C177.849 37.7224 177.996 37.3198 178.159 36.9017C178.328 36.4836 178.5 36.0685 178.675 35.6566C178.85 35.2447 179.019 34.8515 179.182 34.477C179.345 34.0964 179.533 33.7125 179.745 33.3255C179.789 33.2507 179.826 33.182 179.858 33.1196C179.895 33.0572 179.936 33.0041 179.98 32.9604C179.736 32.9667 179.473 32.9979 179.191 33.0541C178.916 33.104 178.65 33.1758 178.394 33.2694C178.144 33.363 177.928 33.4722 177.746 33.597C177.571 33.7219 177.459 33.8592 177.408 34.0089C177.402 34.0277 177.389 34.037 177.371 34.037C177.314 34.037 177.286 33.9934 177.286 33.906C177.286 33.8872 177.292 33.8592 177.305 33.8217C177.361 33.6594 177.43 33.5159 177.511 33.3911C177.599 33.2662 177.686 33.1602 177.774 33.0728C177.981 32.8606 178.212 32.7326 178.469 32.689C178.726 32.639 178.998 32.6141 179.285 32.6141H181.566C181.829 32.6141 182.063 32.6421 182.27 32.6983C182.476 32.7483 182.649 32.82 182.786 32.9136C182.968 33.0322 183.099 33.1789 183.18 33.3536C183.261 33.5221 183.302 33.7 183.302 33.8872C183.302 34.1743 183.24 34.4302 183.114 34.6549C182.989 34.8796 182.824 35.073 182.617 35.2353C182.417 35.3976 182.191 35.5287 181.941 35.6285C181.691 35.7284 181.438 35.8032 181.181 35.8532L180.881 35.9094C181.031 36.4149 181.222 36.8705 181.453 37.2762C181.684 37.6819 181.926 38.0376 182.176 38.3434C182.426 38.6492 182.651 38.9113 182.852 39.1298C182.758 39.1485 182.614 39.1579 182.42 39.1579C182.251 39.1579 182.088 39.1547 181.932 39.1485C181.776 39.136 181.697 39.1298 181.697 39.1298C181.541 39.1298 181.388 39.0455 181.237 38.877C181.087 38.7085 180.943 38.4932 180.806 38.2311C180.668 37.9627 180.543 37.685 180.43 37.3979C180.324 37.1045 180.233 36.833 180.158 36.5834C180.089 36.3338 180.042 36.1403 180.017 36.003C180.017 35.9843 180.014 35.9655 180.008 35.9468C180.008 35.9281 180.008 35.9062 180.008 35.8813C180.008 35.8438 180.014 35.8126 180.027 35.7877C180.045 35.7564 180.08 35.7377 180.13 35.7315C180.443 35.6941 180.727 35.6379 180.984 35.563C181.241 35.4819 181.475 35.3726 181.688 35.2353C181.9 35.0918 182.073 34.917 182.204 34.7111C182.335 34.4989 182.401 34.2492 182.401 33.9621C182.401 33.7312 182.335 33.5221 182.204 33.3349C182.079 33.1415 181.876 33.0135 181.594 32.9511C181.519 32.9324 181.438 32.9198 181.35 32.9136C181.269 32.9074 181.184 32.9011 181.097 32.8949C180.959 33.0821 180.815 33.3068 180.665 33.569C180.515 33.8311 180.368 34.1088 180.224 34.4021C180.08 34.6892 179.942 34.9764 179.811 35.2634C179.685 35.5443 179.573 35.8032 179.473 36.0404C179.423 36.1715 179.348 36.3619 179.248 36.6115C179.154 36.8611 179.057 37.1326 178.957 37.426C178.857 37.7193 178.769 38.0032 178.694 38.2779C178.625 38.5462 178.591 38.7678 178.591 38.9426C178.591 39.0362 178.604 39.1049 178.628 39.1485H177.418ZM184.488 39.2234C184.463 39.2109 184.413 39.1891 184.338 39.1579C184.269 39.1267 184.203 39.0892 184.141 39.0455C184.066 38.9894 184.028 38.9207 184.028 38.8396C184.028 38.7522 184.069 38.6679 184.15 38.5868C184.213 38.5181 184.291 38.462 184.385 38.4183C184.479 38.3747 184.582 38.3528 184.695 38.3528C184.801 38.3528 184.892 38.3715 184.967 38.409C185.042 38.4402 185.079 38.4994 185.079 38.5868C185.079 38.6055 185.073 38.6398 185.061 38.6898C185.01 38.696 184.945 38.7335 184.864 38.8021C184.782 38.8708 184.704 38.9457 184.629 39.0268C184.56 39.1079 184.513 39.1735 184.488 39.2234Z" fill="white"/>
<path d="M45.1676 16.5442L42.3665 14.3378L42.3329 14.3091L44.9407 13.7953C45.1098 13.7621 45.2621 13.6722 45.3714 13.5408C45.4807 13.4094 45.5404 13.2448 45.5401 13.075V10.8699C45.5401 10.6751 45.4615 10.4881 45.3215 10.3502C45.1814 10.2124 44.9916 10.135 44.7936 10.135H41.0608C40.8627 10.135 40.6729 10.2124 40.5329 10.3502C40.3929 10.4881 40.3142 10.6751 40.3142 10.8699V12.1577L40.2627 12.0894C40.2153 11.9645 40.1333 11.8553 40.026 11.774C39.6057 11.1882 39.2459 10.6017 39.0115 10.0945L37.7498 7.3625C36.9457 5.61979 34.7927 4.25488 32.8486 4.25488H14.9312C12.9872 4.25488 10.8341 5.61979 10.03 7.3625L8.76913 10.0938C8.53467 10.6009 8.17483 11.1882 7.75451 11.774C7.64745 11.8555 7.56551 11.9647 7.51786 12.0894L7.46635 12.1577V10.8699C7.46635 10.6751 7.38769 10.4881 7.24768 10.3502C7.10767 10.2124 6.91778 10.135 6.71979 10.135H2.98624C2.78824 10.135 2.59835 10.2124 2.45834 10.3502C2.31834 10.4881 2.23968 10.6751 2.23968 10.8699V13.075C2.23968 13.4256 2.49052 13.727 2.83991 13.7953L5.44764 14.3091L5.41405 14.3378L2.61222 16.5442C1.14747 17.6982 0 20.0488 0 21.8951V34.3903C0 35.6059 1.00487 36.5953 2.23968 36.5953H8.21216C9.44701 36.5953 10.4518 35.6059 10.4518 34.3903V32.9202H37.328V34.3903C37.328 35.6059 38.3328 36.5953 39.5677 36.5953H45.5401C46.775 36.5953 47.7798 35.6059 47.7798 34.3903V21.8951C47.7798 20.0488 46.6323 17.6982 45.1676 16.5442ZM38.3837 31.4502L36.6718 29.7648C35.9454 29.0497 34.6224 28.5102 33.5952 28.5102H13.8114C12.7841 28.5102 11.4612 29.0497 10.7348 29.7648L9.02296 31.4502H3.7328C2.49799 31.4502 1.49312 30.4609 1.49312 29.2452V25.5702H2.23968V26.3052C2.23968 27.9266 3.57901 29.2452 5.22592 29.2452H7.4656C7.66359 29.2452 7.85348 29.1677 7.99349 29.0299C8.1335 28.8921 8.21216 28.7052 8.21216 28.5102C8.21216 28.3153 8.1335 28.1283 7.99349 27.9905C7.85348 27.8527 7.66359 27.7752 7.4656 27.7752H5.22592C4.40246 27.7752 3.7328 27.1159 3.7328 26.3052V25.5702H5.22592C5.84556 25.5702 6.80862 25.9626 7.24685 26.3941C7.31603 26.4626 7.39827 26.5169 7.48885 26.554C7.57943 26.5911 7.67657 26.6102 7.77467 26.6102C7.87277 26.6102 7.96991 26.5911 8.0605 26.554C8.15107 26.5169 8.23332 26.4626 8.30249 26.3941C8.37188 26.3259 8.42693 26.2449 8.46448 26.1557C8.50205 26.0665 8.52138 25.971 8.52138 25.8745C8.52138 25.7779 8.50205 25.6824 8.46448 25.5932C8.42693 25.504 8.37188 25.423 8.30249 25.3548C7.57609 24.6397 6.25393 24.1002 5.22592 24.1002H1.49312V21.8951C1.49312 21.6357 1.53493 21.3557 1.5939 21.0697C2.0717 21.5607 2.76675 21.8951 3.7328 21.8951H9.70527C9.90322 21.8951 10.0931 21.8176 10.2331 21.6797L11.1984 20.7294L12.1637 21.6797C12.2329 21.7481 12.3152 21.8023 12.4058 21.8393C12.4964 21.8762 12.5935 21.8952 12.6915 21.8951H21.3412L23.3621 23.8848C23.4312 23.9533 23.5135 24.0077 23.6041 24.0448C23.6947 24.0818 23.7918 24.1009 23.8899 24.1009C23.988 24.1009 24.0851 24.0818 24.1757 24.0448C24.2663 24.0077 24.3486 23.9533 24.4177 23.8848L26.4387 21.8951H35.0883C35.2862 21.8951 35.4765 21.8179 35.6161 21.6797L36.5814 20.7294L37.5467 21.6797C37.6159 21.7481 37.6982 21.8023 37.7888 21.8393C37.8794 21.8762 37.9765 21.8952 38.0745 21.8951H44.047C45.0131 21.8951 45.7081 21.5607 46.1859 21.0697C46.2449 21.3557 46.2867 21.6357 46.2867 21.8951V24.1002H42.5539C41.5266 24.1002 40.2037 24.6397 39.4773 25.3548C39.408 25.4231 39.353 25.5041 39.3155 25.5933C39.278 25.6824 39.2587 25.7779 39.2587 25.8745C39.2587 25.971 39.278 26.0665 39.3155 26.1557C39.353 26.2448 39.408 26.3259 39.4773 26.3941C39.5467 26.4624 39.6289 26.5165 39.7195 26.5534C39.8101 26.5904 39.9072 26.6094 40.0051 26.6094C40.1031 26.6094 40.2002 26.5904 40.2908 26.5534C40.3814 26.5165 40.4636 26.4624 40.533 26.3941C40.9712 25.9626 41.9343 25.5702 42.5539 25.5702H44.047V26.3052C44.047 27.1159 43.3773 27.7752 42.5539 27.7752H40.3142C40.1162 27.7752 39.9264 27.8527 39.7863 27.9905C39.6463 28.1283 39.5677 28.3153 39.5677 28.5102C39.5677 28.7052 39.6463 28.8921 39.7863 29.0299C39.9264 29.1677 40.1162 29.2452 40.3142 29.2452H42.5539C44.2008 29.2452 45.5401 27.9266 45.5401 26.3052V25.5702H46.2867V29.2452C46.2867 30.4609 45.2819 31.4502 44.047 31.4502H38.3837ZM36.2723 31.4502H11.1341L11.7904 30.8042C12.2286 30.3728 13.1918 29.9802 13.8114 29.9802H33.5952C34.2148 29.9802 35.1779 30.3728 35.6161 30.8042L36.2723 31.4502ZM8.63023 13.075H39.1496C39.873 14.0166 40.6994 14.9074 41.4333 15.4859L42.3315 16.1929L37.051 18.2722L37.0495 18.273C36.9565 18.3099 36.8719 18.3649 36.8009 18.4347L36.0543 19.1697L34.7792 20.4251H26.1296C26.0316 20.425 25.9345 20.444 25.8438 20.4809C25.7532 20.5179 25.671 20.5721 25.6018 20.6404L23.8899 22.3259L22.178 20.6404C22.1088 20.5721 22.0266 20.5179 21.936 20.4809C21.8454 20.444 21.7483 20.425 21.6502 20.4251H13.0005L11.7262 19.1705L10.9796 18.4354C10.9086 18.3656 10.8241 18.3106 10.731 18.2737L10.7296 18.273L5.44913 16.1936L6.34725 15.4865C7.08037 14.9074 7.90682 14.0166 8.63023 13.075ZM45.4961 19.2631C45.346 20.0311 44.8623 20.4251 44.047 20.4251H38.3837L37.6371 19.6901L37.7475 19.5813L43.6715 17.2484L44.2344 17.6923C44.7077 18.065 45.1445 18.6316 45.4961 19.2631ZM41.8073 11.605H44.047V12.4723L41.8073 12.9133V11.605ZM10.1271 10.7024L11.388 7.9711C11.9509 6.75318 13.5732 5.7249 14.9312 5.7249H32.8486C34.2066 5.7249 35.8289 6.75318 36.3911 7.97036L37.6527 10.7024C37.7841 10.9861 37.9551 11.2926 38.1425 11.605H9.63736C9.82472 11.2926 9.99639 10.9861 10.1271 10.7024ZM3.7328 11.605H5.97248V12.9133L3.7328 12.4723V11.605ZM3.54467 17.6923L4.10757 17.2484L10.0322 19.5813L10.1428 19.6901L9.39624 20.4251H3.7328C2.91755 20.4251 2.43378 20.0311 2.28373 19.2631C2.63536 18.6316 3.07135 18.065 3.54467 17.6923ZM8.21216 35.1253H2.23968C1.82832 35.1253 1.49312 34.7953 1.49312 34.3903V32.1669C2.13571 32.6528 2.92257 32.9174 3.7328 32.9202H8.95872V34.3903C8.95872 34.7953 8.62349 35.1253 8.21216 35.1253ZM45.5401 35.1253H39.5677C39.1563 35.1253 38.8211 34.7953 38.8211 34.3903V32.9202H44.047C44.8907 32.9202 45.6611 32.6328 46.2867 32.1669V34.3903C46.2867 34.7953 45.9515 35.1253 45.5401 35.1253Z" fill="white"/>
</g>
<defs>
<clipPath id="clip0_2996_25">
<rect width="186" height="40" fill="white"/>
</clipPath>
</defs>
</svg>
