<svg width="127" height="137" viewBox="0 0 127 137" fill="none" xmlns="http://www.w3.org/2000/svg">
<path opacity="0.1" d="M52.234 49.084L25.5452 29.2061L25.5447 29.2058C21.4607 26.1716 17.7348 24.8005 14.3977 25.2546C11.0408 25.7113 8.22296 27.9929 5.91733 31.9257L5.91682 31.9266L3.00943 36.9087L3.00699 36.913C0.703916 40.9505 0.0997591 44.5846 1.3616 47.752C2.61716 50.9036 5.66696 53.4543 10.3514 55.4597L10.3521 55.4599L40.9315 68.5L10.3521 81.5401L10.3508 81.5406C5.56234 83.598 2.44493 86.1739 1.16116 89.3247C-0.130972 92.4961 0.489671 96.1073 2.84893 100.093C2.84913 100.093 2.84933 100.094 2.84952 100.094L5.7543 105.072C5.75449 105.072 5.75469 105.072 5.75488 105.073C8.06003 109.059 10.8915 111.369 14.2771 111.826C17.642 112.28 21.4084 110.881 25.5452 107.794L52.234 49.084ZM52.234 49.084L48.332 16.0054L52.234 49.084ZM86.1187 68.5015L116.7 55.4605C116.701 55.4604 116.701 55.4603 116.701 55.4603C121.437 53.4563 124.527 50.921 125.811 47.7973C127.104 44.6542 126.512 41.0569 124.207 37.0711L124.206 37.0694L121.301 32.0915C121.301 32.0909 121.3 32.0902 121.3 32.0895C118.996 28.0519 116.167 25.7002 112.781 25.2149C109.414 24.7323 105.646 26.1187 101.509 29.2061L86.1187 68.5015ZM86.1187 68.5015L116.864 81.7011C121.546 83.7052 124.596 86.2278 125.853 89.3254C127.117 92.4423 126.511 95.999 124.206 99.9306L86.1187 68.5015ZM74.8198 49.084L101.508 29.2064L74.8198 49.084ZM74.8198 49.084L78.7218 16.0054L74.8198 49.084ZM50.4954 4.42693C52.5908 1.7707 56.0121 0.5 60.6195 0.5H66.4343C71.0417 0.5 74.463 1.7707 76.5584 4.42693C78.6427 7.06891 79.3208 10.9654 78.7218 16.005L50.4954 4.42693ZM50.4954 4.42693C48.4112 7.06892 47.733 10.9654 48.332 16.005L50.4954 4.42693ZM25.5456 107.794L52.2333 87.9165L48.332 120.834L48.332 120.834C47.7331 125.927 48.4111 129.862 50.4938 132.531C52.5886 135.215 56.0104 136.5 60.6195 136.5H66.2728C70.9339 136.5 74.3952 135.216 76.5176 132.533C78.629 129.865 79.3209 125.928 78.7218 120.834L78.7218 120.834L74.82 87.9121L101.671 107.794L25.5456 107.794ZM121.3 104.911L124.205 99.9314L120.867 104.661L121.299 104.913L121.299 104.912C121.299 104.912 121.299 104.911 121.3 104.911Z" stroke="#0B0C0C"/>
</svg>
