<svg width="126" height="127" viewBox="0 0 126 127" fill="none" xmlns="http://www.w3.org/2000/svg">
<g opacity="0.1" clip-path="url(#clip0_1292_1823)">
<path d="M84.1714 118.8L84.17 118.801C83.6713 118.921 83.0147 118.953 82.3404 118.894C81.6667 118.835 81.0136 118.689 80.5209 118.479L80.5164 118.478C80.0915 118.302 79.7671 118.13 79.4653 117.885C79.1622 117.64 78.8605 117.304 78.5067 116.778C77.7877 115.709 76.9066 113.938 75.3873 110.738L75.3872 110.738C72.787 105.271 72.4979 104.476 72.4075 103.204C72.2922 101.434 72.7281 100.143 73.744 99.0968L73.7496 99.0909L73.7496 99.0909C73.8202 99.0157 73.9853 98.8819 74.2591 98.6941C74.523 98.5131 74.8601 98.3004 75.2501 98.0679C76.029 97.6036 77.0028 97.0697 77.9912 96.5654C83.1587 93.9549 87.1386 91.1374 90.2239 87.7658C93.3118 84.3913 95.4853 80.4821 97.0665 75.7134L97.0666 75.7131C98.4594 71.5015 99.4298 65.8674 99.4298 61.8391L99.4298 60.0283L99.4298 59.5283L98.9298 59.5283L88.7661 59.5283L78.7213 59.5283L77.5478 58.9369L77.5415 58.9338L77.5415 58.9338C76.8789 58.6114 76.0336 57.9595 75.6964 57.5347L75.6914 57.5284L75.6914 57.5284C75.6619 57.4925 75.6333 57.4578 75.6057 57.4242C75.2649 57.0102 75.0607 56.7621 74.8972 56.3156C74.713 55.8122 74.5777 55.0377 74.4904 53.5377C74.3219 50.6413 74.3391 45.2403 74.3739 34.3357L74.3774 33.2162L74.3774 33.216L74.4508 12.1569L74.9337 11.2499L84.1714 118.8ZM84.1714 118.8C84.5574 118.708 85.3445 118.39 86.4039 117.899C87.4466 117.415 88.7111 116.784 90.0291 116.094C92.6693 114.71 95.4989 113.102 97.1743 111.976L97.1749 111.976M84.1714 118.8L97.1749 111.976M97.1749 111.976C101.555 109.041 104.014 107.053 107.705 103.332L107.706 103.331M97.1749 111.976L107.706 103.331M107.706 103.331C113.678 97.3486 117.781 91.2272 120.534 83.5663C123.29 75.8948 124.702 66.6559 125.254 54.4247L125.255 54.4228M107.706 103.331L125.255 54.4228M125.255 54.4228C125.426 50.9164 125.5 41.0829 125.451 30.265L125.451 30.2649M125.255 54.4228L125.451 30.2649M125.451 30.2649C125.414 21.7907 125.389 17.2216 125.322 14.6676C125.253 12.0699 125.136 11.6531 124.989 11.3658L124.989 11.3658M125.451 30.2649L124.989 11.3658M124.989 11.3658L124.988 11.3642M124.989 11.3658L124.988 11.3642M124.988 11.3642C124.445 10.292 123.362 9.17458 122.218 8.55159M124.988 11.3642L122.218 8.55159M122.218 8.55159C122.218 8.55148 122.217 8.55138 122.217 8.55127M122.218 8.55159L122.217 8.55127M122.217 8.55127L121.321 8.06641L100.16 8.06641C91.4601 8.06641 86.0993 8.08502 82.8156 8.13766C81.1729 8.16399 80.0566 8.19875 79.3046 8.24343C78.5301 8.28944 78.1988 8.34413 78.0777 8.3859C77.5605 8.56692 76.9349 8.97343 76.3453 9.50864C75.7587 10.041 75.2454 10.6666 74.934 11.2492L122.217 8.55127Z" stroke="white"/>
<path d="M48.5801 84.1567L48.5804 84.1559C50.1599 80.09 51.5802 73.8583 52.3894 67.4075L52.3896 67.4065C53.4186 59.3315 53.5176 56.3112 53.5176 33.7354C53.5176 23.3266 53.5114 17.8951 53.45 14.9531C53.3878 11.9728 53.2641 11.6375 53.1021 11.3109L53.1021 11.3109L53.1003 11.3072C52.5602 10.1958 51.582 9.20317 50.3619 8.55344L50.3619 8.55345L50.359 8.55191L49.4613 8.06641L28.1777 8.06641C17.5545 8.06641 12.2103 8.06645 9.3815 8.13139C7.96293 8.16396 7.20142 8.21257 6.7311 8.28096C6.29118 8.34493 6.12143 8.42289 5.87298 8.53976L5.87159 8.54041C4.65033 9.11029 3.74231 9.99605 3.05018 11.2736L3.0475 11.2788C2.9363 11.4922 2.86462 11.6298 2.80272 12.0275C2.73441 12.4665 2.68395 13.1967 2.647 14.587C2.57337 17.3575 2.5549 22.6443 2.51798 33.2139L2.51797 33.216L2.51797 33.2162L2.51441 34.3354C2.47965 45.2402 2.46243 50.6413 2.63095 53.5377C2.71822 55.0377 2.85351 55.8122 3.03776 56.3156C3.20121 56.7621 3.40542 57.0102 3.7462 57.4242C3.77386 57.4578 3.80242 57.4925 3.83192 57.5284L3.83197 57.5284L3.83696 57.5347C4.17413 57.9595 5.01941 58.6114 5.68206 58.9338L5.68208 58.9338L5.68831 58.9369L6.86185 59.5283L17.0297 59.5283L17.067 59.5283C22.0422 59.5283 24.6205 59.5283 25.9514 59.5877C26.5965 59.6165 27.0224 59.6603 27.2888 59.7574C27.4371 59.8114 27.6058 59.9058 27.7144 60.0875C27.8164 60.2582 27.8164 60.4309 27.8164 60.499L27.8164 60.4996C27.8164 62.4032 27.1709 67.9195 26.6748 70.4196L26.6747 70.4202C25.904 74.2792 25.0793 76.7735 23.4622 80.209L23.4619 80.2096C20.0065 87.5286 14.7418 92.4384 5.87859 96.7426L5.87729 96.7432C3.60941 97.8364 2.32286 98.6349 1.58412 99.5059C0.87777 100.339 0.635136 101.286 0.623059 102.818C0.62307 103.248 0.626866 103.542 0.669308 103.843C0.710996 104.139 0.792642 104.458 0.963895 104.918C1.31379 105.858 2.00748 107.313 3.40388 110.24C4.17709 111.848 4.96214 113.418 5.60218 114.647C5.92235 115.261 6.20499 115.788 6.43097 116.19C6.66258 116.602 6.81635 116.85 6.88647 116.939C8.45339 118.849 11.117 119.335 14.0721 118.035C30.5344 110.787 43.0497 98.4731 48.5801 84.1567Z" stroke="white"/>
</g>
<defs>
<clipPath id="clip0_1292_1823">
<rect width="126" height="127" fill="white" transform="translate(126 127.001) rotate(180)"/>
</clipPath>
</defs>
</svg>
